# xmcd CD database file
# Copyright (C) 1997 Ti Kan
# 
# Track frame offsets:
#     150
#     16312
#     33987
#     43595
#     63502
#     80165
#     91740
#     100745
#     113307
#     125527
#     137002
#     148650
#     171122
#     188212
# 
# Disc length: 2773 seconds
# 
# Revision: 1
# Processed by: cddbd v1.4b41PL1 Copyright (c) Steve Scherf et al.
# Submitted via: DiscPlay 4.0.4
# 
DISCID=b40ad30e
DTITLE=Various Artist - Q Country - Disk 2
DYEAR=1900
DGENRE=
TTITLE0=Emmylou Harris - Boulder To Birmingham
TTITLE1=Gram Parsons - Hickory Wind
TTITLE2=Elvis Costello and The Attractions - Tonight The Bottle Let Me Down
TTITLE3=Hal Ketchum - Past The Point Of Rescue
TTITLE4=John Prine - Angel From Montgomery
TTITLE5=The Byrds - You Ain't Goin' Nowhere
TTITLE6=Patsy Cline - Walking After Midnight
TTITLE7=Hank Williams - I'm So Lonesome I Could Cry
TTITLE8=Merle Haggard - Okie From Muscogee
TTITLE9=Johnny Cash - I Still Miss Someone
TTITLE10=Jerry Lee Lewis - What Made Milwaukee Famous (Has Made A Loser Out 
TTITLE10=Of Me)
TTITLE11=Gene Clark - For A Spanish Guitar
TTITLE12=Junior Brown - My Wife Thinks You're Dead
TTITLE13=Hank Williams Jnr - All My Rowdy Friends Are Coming Over Tonight
EXTD=
EXTT0=
EXTT1=
EXTT2=
EXTT3=
EXTT4=
EXTT5=
EXTT6=
EXTT7=
EXTT8=
EXTT9=
EXTT10=
EXTT11=
EXTT12=
EXTT13=
PLAYORDER=
